


 
http://www.imdb.com/title/tt1956407/



The saying goes that love means never having to say you're sorry... This is especially true when you're being held in a religious madman's basement with your neck chained to a wooden post. '9 Days' is based on a DARKly comedic reading of 'Dante's Inferno.' 



Directors:
 Samuel Johnson, Samuel M. Johnson 

Writer:
 Samuel M. Johnson 

Stars:
 Simone Frajnd, Simone Fraund, David Alan Graf 

Genres:
  Comedy |  Horror |  Romance 

Country:
 USA 

Language:
 English 



Format                                   : AVI
Format/Info                              : Audio Video Interleave
File size                                : 699 MiB
Duration                                 : 1h 22mn
Overall bit rate mode                    : Variable
Overall bit rate                         : 1 180 Kbps
Writing application                      : VirtualDubMod 1.5.10.2 (build 2540/release)
Writing library                          : VirtualDubMod build 2540/release

Video
ID                                       : 0
Format                                   : MPEG-4 Visual
Format profile                           : Advanced Simple@L5
Format settings, BVOP                    : 2
Format settings, QPel                    : No
Format settings, GMC                     : No warppoints
Format settings, Matrix                  : Default (MPEG)
Codec ID                                 : XVID
Codec ID/Hint                            : XviD
Duration                                 : 1h 22mn
Bit rate                                 : 1 050 Kbps
Width                                    : 640 pixels
Height                                   : 352 pixels
Display aspect ratio                     : 16:9
Frame rate                               : 23.976 fps
Color space                              : YUV
Chroma subsampling                       : 4:2:0
Bit depth                                : 8 bits
Scan type                                : Progressive
Compression mode                         : Lossy
Bits/(Pixel*Frame)                       : 0.194
Stream size                              : 622 MiB (89%)
Writing library                          : XviD 1.2.1 (UTC 2008-12-04)

Audio
ID                                       : 1
Format                                   : MPEG Audio
Format version                           : Version 1
Format profile                           : Layer 3
Mode                                     : Joint stereo
Mode extension                           : MS Stereo
Codec ID                                 : 55
Codec ID/Hint                            : MP3
Duration                                 : 1h 22mn
Bit rate mode                            : Variable
Bit rate                                 : 120 Kbps
Channel(s)                               : 2 channels
Sampling rate                            : 48.0 KHz
Compression mode                         : Lossy
Stream size                              : 69.8 MiB (10%)
Alignment                                : Aligned on interleaves
Interleave, duration                     : 24 ms (0.58 video frame)
Interleave, preload duration             : 156 ms
Writing library                          : LAME3.90.
Encoding settings                        : -m j -V 4 -q 2 -lowpass 17.6 --abr 120




    	http://addpix.net/viewer.php?file=84207904660467482134.jpg
    	http://addpix.net/viewer.php?file=53023976378695055418.jpg
    	http://addpix.net/viewer.php?file=50664327064134882668.jpg
    	http://addpix.net/viewer.php?file=47543786599776828786.jpg